# xmcd CD database file
# Copyright (C) 1996 Ti Kan
#
# Track frame offsets:
#  187
#  12587
#  24712
#  37862
#  47637
#  56437
#  74062
#  89937
#  98437
#  112787
#  126437
#  135962
#
# Disc length: 2017 seconds
#
# Revision: 1
# Processed by: cddbd v1.4b41PL1 Copyright (c) Steve Scherf et al.
# Submitted via: CDWizzard Release:4.12
#
DISCID=9f07df0c
DTITLE=Magic Sam - The Late Great Magic Sam
DYEAR=1900
DGENRE=
TTITLE0=High Heel Sneakers
TTITLE1=All Your Love
TTITLE2=Trying To Make It
TTITLE3=Call Me If You Need Me
TTITLE4=Look Out Sam
TTITLE5=Torturing My Soul
TTITLE6=Sometimes
TTITLE7=Back Door Friend
TTITLE8=Feeling Good
TTITLE9=All Your Fault
TTITLE10=Looking Good
TTITLE11=Easy Baby
EXTD=
EXTT0=
EXTT1=
EXTT2=
EXTT3=
EXTT4=
EXTT5=
EXTT6=
EXTT7=
EXTT8=
EXTT9=
EXTT10=
EXTT11=
PLAYORDER=
